<?xml version="1.0" encoding="UTF-8" standalone="no"?>
<!DOCTYPE svg PUBLIC "-//W3C//DTD SVG 1.1//EN"
 "http://www.w3.org/Graphics/SVG/1.1/DTD/svg11.dtd">
<!-- Generated by graphviz version 2.43.0 (0)
 -->
<!-- Title: %3 Pages: 1 -->
<svg width="743pt" height="332pt"
 viewBox="0.00 0.00 743.00 332.00" xmlns="http://www.w3.org/2000/svg" xmlns:xlink="http://www.w3.org/1999/xlink">
<g id="graph0" class="graph" transform="scale(1 1) rotate(0) translate(4 328)">
<title>%3</title>
<polygon fill="white" stroke="transparent" points="-4,4 -4,-328 739,-328 739,4 -4,4"/>
<!-- n0x5728551f0850 -->
<g id="node1" class="node">
<title>n0x5728551f0850</title>
<polygon fill="none" stroke="black" points="232,-300.5 232,-323.5 339,-323.5 339,-300.5 232,-300.5"/>
<text text-anchor="middle" x="275" y="-308.3" font-family="Times,serif" font-size="14.00">programa</text>
<polyline fill="none" stroke="black" points="318,-300.5 318,-323.5 "/>
<text text-anchor="middle" x="328.5" y="-308.3" font-family="Times,serif" font-size="14.00"> </text>
</g>
<!-- n0x5728551f0880 -->
<g id="node2" class="node">
<title>n0x5728551f0880</title>
<polygon fill="none" stroke="black" points="0,-240.5 0,-263.5 165,-263.5 165,-240.5 0,-240.5"/>
<text text-anchor="middle" x="53.5" y="-248.3" font-family="Times,serif" font-size="14.00">identificador</text>
<polyline fill="none" stroke="black" points="107,-240.5 107,-263.5 "/>
<text text-anchor="middle" x="136" y="-248.3" font-family="Times,serif" font-size="14.00">dobro</text>
</g>
<!-- n0x5728551f0850&#45;&gt;n0x5728551f0880 -->
<g id="edge1" class="edge">
<title>n0x5728551f0850&#45;&gt;n0x5728551f0880</title>
<path fill="none" stroke="black" d="M248.74,-300.5C215.21,-290.92 165.52,-276.72 129.2,-266.34"/>
<polygon fill="black" stroke="black" points="129.91,-262.91 119.33,-263.52 127.98,-269.64 129.91,-262.91"/>
</g>
<!-- n0x5728551f05d0 -->
<g id="node3" class="node">
<title>n0x5728551f05d0</title>
<polygon fill="none" stroke="black" points="183,-240.5 183,-263.5 388,-263.5 388,-240.5 183,-240.5"/>
<text text-anchor="middle" x="275" y="-248.3" font-family="Times,serif" font-size="14.00">declaracao de variaveis</text>
<polyline fill="none" stroke="black" points="367,-240.5 367,-263.5 "/>
<text text-anchor="middle" x="377.5" y="-248.3" font-family="Times,serif" font-size="14.00"> </text>
</g>
<!-- n0x5728551f0850&#45;&gt;n0x5728551f05d0 -->
<g id="edge2" class="edge">
<title>n0x5728551f0850&#45;&gt;n0x5728551f05d0</title>
<path fill="none" stroke="black" d="M285.5,-300.36C285.5,-292.92 285.5,-282.74 285.5,-273.73"/>
<polygon fill="black" stroke="black" points="289,-273.57 285.5,-263.57 282,-273.57 289,-273.57"/>
</g>
<!-- n0x5728551f0820 -->
<g id="node7" class="node">
<title>n0x5728551f0820</title>
<polygon fill="none" stroke="black" points="406.5,-240.5 406.5,-263.5 550.5,-263.5 550.5,-240.5 406.5,-240.5"/>
<text text-anchor="middle" x="468" y="-248.3" font-family="Times,serif" font-size="14.00">lista comandos</text>
<polyline fill="none" stroke="black" points="529.5,-240.5 529.5,-263.5 "/>
<text text-anchor="middle" x="540" y="-248.3" font-family="Times,serif" font-size="14.00"> </text>
</g>
<!-- n0x5728551f0850&#45;&gt;n0x5728551f0820 -->
<g id="edge6" class="edge">
<title>n0x5728551f0850&#45;&gt;n0x5728551f0820</title>
<path fill="none" stroke="black" d="M320.45,-300.5C352.19,-290.96 399.17,-276.84 433.66,-266.48"/>
<polygon fill="black" stroke="black" points="434.91,-269.75 443.48,-263.52 432.9,-263.05 434.91,-269.75"/>
</g>
<!-- n0x5728551f0600 -->
<g id="node4" class="node">
<title>n0x5728551f0600</title>
<polygon fill="none" stroke="black" points="101.5,-180.5 101.5,-203.5 209.5,-203.5 209.5,-180.5 101.5,-180.5"/>
<text text-anchor="middle" x="123.5" y="-188.3" font-family="Times,serif" font-size="14.00">tipo</text>
<polyline fill="none" stroke="black" points="145.5,-180.5 145.5,-203.5 "/>
<text text-anchor="middle" x="177.5" y="-188.3" font-family="Times,serif" font-size="14.00">inteiro</text>
</g>
<!-- n0x5728551f05d0&#45;&gt;n0x5728551f0600 -->
<g id="edge3" class="edge">
<title>n0x5728551f05d0&#45;&gt;n0x5728551f0600</title>
<path fill="none" stroke="black" d="M261.96,-240.5C241.47,-231.36 211.55,-218.01 188.65,-207.79"/>
<polygon fill="black" stroke="black" points="189.86,-204.5 179.31,-203.62 187.01,-210.89 189.86,-204.5"/>
</g>
<!-- n0x5728551f0550 -->
<g id="node5" class="node">
<title>n0x5728551f0550</title>
<polygon fill="none" stroke="black" points="228,-180.5 228,-203.5 365,-203.5 365,-180.5 228,-180.5"/>
<text text-anchor="middle" x="286" y="-188.3" font-family="Times,serif" font-size="14.00">lista variaveis</text>
<polyline fill="none" stroke="black" points="344,-180.5 344,-203.5 "/>
<text text-anchor="middle" x="354.5" y="-188.3" font-family="Times,serif" font-size="14.00"> </text>
</g>
<!-- n0x5728551f05d0&#45;&gt;n0x5728551f0550 -->
<g id="edge4" class="edge">
<title>n0x5728551f05d0&#45;&gt;n0x5728551f0550</title>
<path fill="none" stroke="black" d="M287.52,-240.36C288.94,-232.84 290.9,-222.52 292.63,-213.43"/>
<polygon fill="black" stroke="black" points="296.07,-214.05 294.5,-203.57 289.19,-212.74 296.07,-214.05"/>
</g>
<!-- n0x5728551f0580 -->
<g id="node6" class="node">
<title>n0x5728551f0580</title>
<polygon fill="none" stroke="black" points="230,-120.5 230,-143.5 363,-143.5 363,-120.5 230,-120.5"/>
<text text-anchor="middle" x="283.5" y="-128.3" font-family="Times,serif" font-size="14.00">identificador</text>
<polyline fill="none" stroke="black" points="337,-120.5 337,-143.5 "/>
<text text-anchor="middle" x="350" y="-128.3" font-family="Times,serif" font-size="14.00">n</text>
</g>
<!-- n0x5728551f0550&#45;&gt;n0x5728551f0580 -->
<g id="edge5" class="edge">
<title>n0x5728551f0550&#45;&gt;n0x5728551f0580</title>
<path fill="none" stroke="black" d="M296.5,-180.36C296.5,-172.92 296.5,-162.74 296.5,-153.73"/>
<polygon fill="black" stroke="black" points="300,-153.57 296.5,-143.57 293,-153.57 300,-153.57"/>
</g>
<!-- n0x5728551f0650 -->
<g id="node8" class="node">
<title>n0x5728551f0650</title>
<polygon fill="none" stroke="black" points="426,-180.5 426,-203.5 511,-203.5 511,-180.5 426,-180.5"/>
<text text-anchor="middle" x="458" y="-188.3" font-family="Times,serif" font-size="14.00">leitura</text>
<polyline fill="none" stroke="black" points="490,-180.5 490,-203.5 "/>
<text text-anchor="middle" x="500.5" y="-188.3" font-family="Times,serif" font-size="14.00"> </text>
</g>
<!-- n0x5728551f0820&#45;&gt;n0x5728551f0650 -->
<g id="edge7" class="edge">
<title>n0x5728551f0820&#45;&gt;n0x5728551f0650</title>
<path fill="none" stroke="black" d="M476.67,-240.36C475.37,-232.84 473.59,-222.52 472.02,-213.43"/>
<polygon fill="black" stroke="black" points="475.47,-212.83 470.32,-203.57 468.57,-214.02 475.47,-212.83"/>
</g>
<!-- n0x5728551f07f0 -->
<g id="node10" class="node">
<title>n0x5728551f07f0</title>
<polygon fill="none" stroke="black" points="529.5,-180.5 529.5,-203.5 673.5,-203.5 673.5,-180.5 529.5,-180.5"/>
<text text-anchor="middle" x="591" y="-188.3" font-family="Times,serif" font-size="14.00">lista comandos</text>
<polyline fill="none" stroke="black" points="652.5,-180.5 652.5,-203.5 "/>
<text text-anchor="middle" x="663" y="-188.3" font-family="Times,serif" font-size="14.00"> </text>
</g>
<!-- n0x5728551f0820&#45;&gt;n0x5728551f07f0 -->
<g id="edge9" class="edge">
<title>n0x5728551f0820&#45;&gt;n0x5728551f07f0</title>
<path fill="none" stroke="black" d="M500.77,-240.5C520.07,-231.4 548.21,-218.13 569.85,-207.93"/>
<polygon fill="black" stroke="black" points="571.42,-211.05 578.98,-203.62 568.44,-204.72 571.42,-211.05"/>
</g>
<!-- n0x5728551f0680 -->
<g id="node9" class="node">
<title>n0x5728551f0680</title>
<polygon fill="none" stroke="black" points="402,-120.5 402,-143.5 535,-143.5 535,-120.5 402,-120.5"/>
<text text-anchor="middle" x="455.5" y="-128.3" font-family="Times,serif" font-size="14.00">identificador</text>
<polyline fill="none" stroke="black" points="509,-120.5 509,-143.5 "/>
<text text-anchor="middle" x="522" y="-128.3" font-family="Times,serif" font-size="14.00">n</text>
</g>
<!-- n0x5728551f0650&#45;&gt;n0x5728551f0680 -->
<g id="edge8" class="edge">
<title>n0x5728551f0650&#45;&gt;n0x5728551f0680</title>
<path fill="none" stroke="black" d="M468.5,-180.36C468.5,-172.92 468.5,-162.74 468.5,-153.73"/>
<polygon fill="black" stroke="black" points="472,-153.57 468.5,-143.57 465,-153.57 472,-153.57"/>
</g>
<!-- n0x5728551f07c0 -->
<g id="node11" class="node">
<title>n0x5728551f07c0</title>
<polygon fill="none" stroke="black" points="558.5,-120.5 558.5,-143.5 644.5,-143.5 644.5,-120.5 558.5,-120.5"/>
<text text-anchor="middle" x="591" y="-128.3" font-family="Times,serif" font-size="14.00">escrita</text>
<polyline fill="none" stroke="black" points="623.5,-120.5 623.5,-143.5 "/>
<text text-anchor="middle" x="634" y="-128.3" font-family="Times,serif" font-size="14.00"> </text>
</g>
<!-- n0x5728551f07f0&#45;&gt;n0x5728551f07c0 -->
<g id="edge10" class="edge">
<title>n0x5728551f07f0&#45;&gt;n0x5728551f07c0</title>
<path fill="none" stroke="black" d="M601.5,-180.36C601.5,-172.92 601.5,-162.74 601.5,-153.73"/>
<polygon fill="black" stroke="black" points="605,-153.57 601.5,-143.57 598,-153.57 605,-153.57"/>
</g>
<!-- n0x5728551f0770 -->
<g id="node12" class="node">
<title>n0x5728551f0770</title>
<polygon fill="none" stroke="black" points="547,-60.5 547,-83.5 656,-83.5 656,-60.5 547,-60.5"/>
<text text-anchor="middle" x="591" y="-68.3" font-family="Times,serif" font-size="14.00">multiplica</text>
<polyline fill="none" stroke="black" points="635,-60.5 635,-83.5 "/>
<text text-anchor="middle" x="645.5" y="-68.3" font-family="Times,serif" font-size="14.00"> </text>
</g>
<!-- n0x5728551f07c0&#45;&gt;n0x5728551f0770 -->
<g id="edge11" class="edge">
<title>n0x5728551f07c0&#45;&gt;n0x5728551f0770</title>
<path fill="none" stroke="black" d="M601.5,-120.36C601.5,-112.92 601.5,-102.74 601.5,-93.73"/>
<polygon fill="black" stroke="black" points="605,-93.57 601.5,-83.57 598,-93.57 605,-93.57"/>
</g>
<!-- n0x5728551f06d0 -->
<g id="node13" class="node">
<title>n0x5728551f06d0</title>
<polygon fill="none" stroke="black" points="487,-0.5 487,-23.5 584,-23.5 584,-0.5 487,-0.5"/>
<text text-anchor="middle" x="522.5" y="-8.3" font-family="Times,serif" font-size="14.00">numero</text>
<polyline fill="none" stroke="black" points="558,-0.5 558,-23.5 "/>
<text text-anchor="middle" x="571" y="-8.3" font-family="Times,serif" font-size="14.00">2</text>
</g>
<!-- n0x5728551f0770&#45;&gt;n0x5728551f06d0 -->
<g id="edge12" class="edge">
<title>n0x5728551f0770&#45;&gt;n0x5728551f06d0</title>
<path fill="none" stroke="black" d="M589.39,-60.36C579.81,-51.94 566.24,-40.01 555.11,-30.23"/>
<polygon fill="black" stroke="black" points="557.35,-27.54 547.53,-23.57 552.73,-32.8 557.35,-27.54"/>
</g>
<!-- n0x5728551f0720 -->
<g id="node14" class="node">
<title>n0x5728551f0720</title>
<polygon fill="none" stroke="black" points="602,-0.5 602,-23.5 735,-23.5 735,-0.5 602,-0.5"/>
<text text-anchor="middle" x="655.5" y="-8.3" font-family="Times,serif" font-size="14.00">identificador</text>
<polyline fill="none" stroke="black" points="709,-0.5 709,-23.5 "/>
<text text-anchor="middle" x="722" y="-8.3" font-family="Times,serif" font-size="14.00">n</text>
</g>
<!-- n0x5728551f0770&#45;&gt;n0x5728551f0720 -->
<g id="edge13" class="edge">
<title>n0x5728551f0770&#45;&gt;n0x5728551f0720</title>
<path fill="none" stroke="black" d="M613.79,-60.36C623.52,-51.94 637.3,-40.01 648.6,-30.23"/>
<polygon fill="black" stroke="black" points="651.02,-32.76 656.29,-23.57 646.44,-27.47 651.02,-32.76"/>
</g>
</g>
</svg>
